<?xml version="1.0" encoding="UTF-8"?>
<svg id="Layer_1" xmlns="http://www.w3.org/2000/svg" version="1.1" viewBox="0 0 390.18 165.03">
  <!-- Generator: Adobe Illustrator 29.6.1, SVG Export Plug-In . SVG Version: 2.1.1 Build 9)  -->
  <defs>
    <style>
      .st0 {
        fill: #d40e14;
      }

      .st1 {
        fill: #fff;
      }
    </style>
  </defs>
  <path class="st1" d="M67.03,66.26v6.7h-16.76v6.94h15.08v6.41h-15.08v6.98h17.29v6.65h-24.81v-33.67h24.28Z"/>
  <path class="st1" d="M110.91,99.93h-7.51v-13.3l-11.66-20.38h8.14l7.27,12.52,7.27-12.52h8.14l-11.66,20.38v13.3Z"/>
  <path class="st1" d="M209.88,72.59c-.72.59-1.08,1.38-1.08,2.36s.44,1.76,1.32,2.34c.88.58,2.92,1.26,6.12,2.05,3.2.79,5.68,1.97,7.44,3.54,1.77,1.57,2.65,3.87,2.65,6.89s-1.13,5.47-3.4,7.35c-2.26,1.88-5.24,2.82-8.94,2.82-5.33,0-10.13-1.98-14.4-5.93l4.48-5.49c3.63,3.18,6.98,4.77,10.07,4.77,1.38,0,2.46-.3,3.25-.89.79-.59,1.18-1.4,1.18-2.41s-.42-1.81-1.25-2.41c-.84-.59-2.49-1.2-4.96-1.81-3.92-.93-6.78-2.14-8.6-3.64-1.81-1.49-2.72-3.84-2.72-7.03s1.15-5.66,3.44-7.39c2.3-1.73,5.16-2.6,8.6-2.6,2.25,0,4.5.39,6.74,1.16,2.25.77,4.21,1.86,5.88,3.28l-3.81,5.49c-2.92-2.22-5.94-3.32-9.06-3.32-1.25,0-2.24.3-2.96.89Z"/>
  <path class="st0" d="M347.43,66.21v33.72h-3.95l-20.23-25.15v25.15h-4.82v-33.72h3.95l20.23,25.15v-25.15h4.82Z"/>
  <path class="st0" d="M257.88,82.73c0-2.44.57-4.65,1.71-6.62,1.14-1.98,2.71-3.52,4.72-4.65,2.01-1.12,4.25-1.69,6.72-1.69s4.7.56,6.67,1.69c1.98,1.12,3.53,2.67,4.67,4.65,1.14,1.98,1.71,4.18,1.71,6.62h4.82c0-3.28-.77-6.22-2.31-8.84-1.54-2.62-3.68-4.67-6.41-6.17-2.73-1.49-5.78-2.24-9.15-2.24s-6.47.75-9.2,2.24c-2.73,1.49-4.87,3.56-6.43,6.19-1.56,2.63-2.34,5.57-2.34,8.82h4.82Z"/>
  <polygon class="st1" points="155.86 86.3 170.93 86.3 170.93 80 148.34 80 148.34 99.93 173.15 99.93 173.15 93.28 155.86 93.28 155.86 86.3"/>
  <rect class="st0" x="148.34" y="66.26" width="24.81" height="3.53"/>
  <rect class="st0" x="258.58" y="96.4" width="24.81" height="3.53"/>
</svg>